<?xml version="1.0" standalone="no"?>
<!DOCTYPE svg PUBLIC "-//W3C//DTD SVG 20010904//EN"
 "http://www.w3.org/TR/2001/REC-SVG-20010904/DTD/svg10.dtd">
<svg version="1.0" xmlns="http://www.w3.org/2000/svg"
 width="800.000000pt" height="600.000000pt" viewBox="0 0 800.000000 600.000000"
 preserveAspectRatio="xMidYMid meet">

<g transform="translate(0.000000,600.000000) scale(0.100000,-0.100000)"
fill="#000000" stroke="none">
<path d="M2640 3525 l0 -255 65 0 64 0 3 136 3 135 45 -83 45 -83 55 0 55 0
45 82 c25 45 49 83 53 83 5 0 8 -19 7 -42 -1 -24 -1 -85 -1 -135 l1 -93 60 0
60 0 0 255 0 256 -66 -3 -67 -3 -73 -134 -73 -135 -16 30 c-9 16 -42 76 -73
134 l-57 105 -68 3 -67 3 0 -256z"/>
<path d="M3294 3767 c-2 -7 -3 -120 -2 -252 l3 -240 203 -3 202 -2 0 50 0 50
-140 0 -140 0 0 50 0 50 110 0 110 0 0 50 0 49 -107 3 -108 3 0 50 0 50 138 3
137 3 0 49 0 50 -200 0 c-153 0 -202 -3 -206 -13z"/>
<path d="M3855 3773 c-90 -20 -107 -49 -113 -200 -7 -165 3 -237 38 -276 l29
-32 168 2 c92 0 179 5 192 10 23 9 23 11 23 139 -1 71 -2 132 -2 137 0 4 -49
7 -110 7 l-110 0 0 -45 0 -45 51 0 50 0 -3 -52 -3 -53 -85 -3 c-110 -4 -110
-4 -110 155 0 165 -2 163 160 163 l120 0 0 50 0 50 -137 -1 c-76 -1 -147 -3
-158 -6z"/>
<path d="M4335 3573 c-43 -115 -86 -230 -96 -256 l-19 -48 72 3 71 3 15 43 14
42 93 0 93 0 14 -42 15 -43 71 -3 72 -3 -19 48 c-10 26 -54 141 -97 256 l-78
207 -71 0 -71 0 -79 -207z m180 -33 c14 -40 25 -77 25 -82 0 -4 -25 -8 -55 -8
-30 0 -55 3 -55 7 0 15 52 164 56 160 2 -2 15 -37 29 -77z"/>
<path d="M5010 3526 l0 -256 180 0 c145 0 187 3 211 16 74 38 77 174 6 230
l-24 20 23 27 c48 56 39 147 -19 191 -26 19 -44 21 -203 24 l-174 4 0 -256z
m290 134 c15 -23 12 -57 -6 -74 -11 -12 -35 -16 -85 -16 l-69 0 0 56 0 56 76
-4 c52 -2 78 -8 84 -18z m18 -202 c7 -7 12 -24 12 -38 0 -42 -17 -50 -107 -50
l-83 0 0 50 0 50 83 0 c51 0 88 -5 95 -12z"/>
<path d="M5665 3763 c-4 -10 -44 -117 -90 -238 -46 -121 -87 -228 -90 -237 -6
-16 0 -18 63 -18 l70 0 15 43 14 42 94 0 94 0 15 -42 14 -43 68 0 c37 0 68 3
68 8 0 4 -42 117 -93 252 l-92 245 -71 3 c-61 2 -73 0 -79 -15z m130 -292 c6
-20 3 -21 -54 -21 l-60 0 24 68 c40 115 36 113 61 40 12 -37 25 -76 29 -87z"/>
<path d="M6135 3773 c-81 -18 -107 -54 -108 -148 -1 -129 31 -155 200 -163
l113 -5 0 -37 c0 -60 -12 -64 -170 -57 l-140 5 0 -47 0 -48 98 -6 c244 -17
298 -6 326 64 20 50 20 118 0 168 -22 56 -59 71 -177 71 -74 0 -99 4 -111 16
-22 21 -20 50 4 74 18 18 33 20 135 20 l115 0 0 50 0 50 -132 -1 c-73 -1 -142
-3 -153 -6z"/>
<path d="M6540 3525 l0 -255 200 0 200 0 0 50 0 50 -135 0 -135 0 0 50 0 50
105 0 105 0 0 50 0 50 -105 0 -105 0 0 55 0 55 135 0 135 0 0 50 0 50 -200 0
-200 0 0 -255z"/>
<path d="M2204 3322 c4 -3 14 -7 22 -8 9 -1 13 0 10 4 -4 3 -14 7 -22 8 -9 1
-13 0 -10 -4z"/>
<path d="M2407 3297 c-6 -15 28 -17 40 -1 5 5 4 6 -1 2 -5 -4 -15 -3 -21 2 -9
7 -14 6 -18 -3z"/>
<path d="M2462 3290 c0 -14 2 -19 5 -12 2 6 2 18 0 25 -3 6 -5 1 -5 -13z"/>
<path d="M2248 3273 c6 -2 9 -10 6 -15 -4 -7 -2 -8 5 -4 13 9 5 26 -12 25 -9
0 -8 -2 1 -6z"/>
<path d="M2451 3234 c0 -11 3 -14 6 -6 3 7 2 16 -1 19 -3 4 -6 -2 -5 -13z"/>
<path d="M1926 3185 c-11 -8 -15 -15 -9 -15 6 0 16 7 23 15 16 19 11 19 -14 0z"/>
<path d="M3628 3180 c-97 -15 -131 -41 -170 -125 -21 -47 -23 -66 -26 -295 -5
-345 11 -437 87 -487 63 -43 103 -48 351 -48 272 0 314 8 373 75 54 58 59 102
55 435 -3 274 -4 292 -25 330 -27 51 -58 80 -108 101 -33 14 -79 18 -260 20
-121 2 -246 -1 -277 -6z m410 -200 c22 -20 22 -26 22 -275 0 -321 17 -295
-189 -295 -212 0 -195 -25 -199 289 l-3 251 25 25 c25 24 28 25 174 25 135 0
150 -2 170 -20z"/>
<path d="M6268 3180 c-70 -11 -108 -30 -141 -69 -49 -58 -52 -84 -52 -411 0
-290 1 -307 21 -351 12 -25 37 -57 55 -71 64 -48 96 -53 354 -53 274 0 320 9
374 71 54 61 61 107 61 409 0 220 -3 282 -16 325 -19 66 -72 122 -129 140 -49
15 -447 22 -527 10z m409 -202 c23 -21 23 -23 23 -272 0 -320 16 -296 -196
-296 l-153 0 -20 26 c-20 25 -21 39 -21 272 0 315 -15 292 194 292 140 0 151
-1 173 -22z"/>
<path d="M1613 3165 c0 -8 4 -12 9 -9 5 3 6 10 3 15 -9 13 -12 11 -12 -6z"/>
<path d="M1463 3163 c4 -3 1 -13 -6 -22 -11 -14 -10 -14 5 -2 16 12 16 31 1
31 -4 0 -3 -3 0 -7z"/>
<path d="M2640 2705 l0 -465 360 0 360 0 0 90 0 90 -240 0 -240 0 0 375 0 375
-120 0 -120 0 0 -465z"/>
<path d="M4370 3080 l0 -90 140 0 140 0 0 -375 0 -375 120 0 120 0 0 375 0
375 140 0 140 0 0 90 0 90 -400 0 -400 0 0 -90z"/>
<path d="M5200 3080 l0 -90 140 0 140 0 0 -375 0 -375 120 0 120 0 0 375 0
375 140 0 140 0 0 90 0 90 -400 0 -400 0 0 -90z"/>
<path d="M2031 3144 c6 -7 16 -11 21 -8 11 7 3 17 -18 20 -12 2 -13 -1 -3 -12z"/>
<path d="M1626 3142 c-3 -5 4 -16 15 -25 10 -9 19 -12 19 -7 0 6 -7 13 -16 17
-13 5 -13 7 -2 14 9 6 9 9 1 9 -6 0 -14 -4 -17 -8z"/>
<path d="M1431 3054 c0 -11 3 -14 6 -6 3 7 2 16 -1 19 -3 4 -6 -2 -5 -13z"/>
<path d="M1432 2985 c0 -16 2 -22 5 -12 2 9 2 23 0 30 -3 6 -5 -1 -5 -18z"/>
<path d="M1432 2638 c-1 -174 1 -319 6 -321 4 -3 6 90 4 206 -4 395 -8 433
-10 115z"/>
<path d="M2301 2674 c0 -11 3 -14 6 -6 3 7 2 16 -1 19 -3 4 -6 -2 -5 -13z"/>
<path d="M2091 2603 c7 -12 15 -20 18 -17 3 2 -3 12 -13 22 -17 16 -18 16 -5
-5z"/>
<path d="M1830 2586 c0 -2 8 -10 18 -17 15 -13 16 -12 3 4 -13 16 -21 21 -21
13z"/>
<path d="M2266 2568 c3 -5 10 -6 15 -3 13 9 11 12 -6 12 -8 0 -12 -4 -9 -9z"/>
</g>
</svg>
